<?xml version="1.0" encoding="UTF-8"?>
<svg id="Capa_2" data-name="Capa 2" xmlns="http://www.w3.org/2000/svg" viewBox="0 0 131.02 164.04">
  <defs>
    <style>
      .cls-1 {
        fill: #ab85bb;
        stroke-width: 0px;
      }

      .cls-2 {
        fill: none;
        stroke: #ab85bb;
        stroke-miterlimit: 10;
        stroke-width: 4px;
      }

      .cls-3 {
        opacity: .96;
      }
    </style>
  </defs>
  <g id="Capa_1-2" data-name="Capa 1">
    <g>
      <path class="cls-2" d="M57.85,98.23c5.86-.76,11.06.25,14.08.83,5.58,1.08,5.54,1.99,9.93,2.5,3.03.35,8.15.95,13.39-1.46,1.32-.61,6.23-2.87,8.31-7.72,3.1-7.22-2.41-14.72-3.69-16.48-3.67-5-6.1-4.11-9.46-9.59-.36-.59-.39-.69-4.39-9.8-1.93-4.39-2.91-6.61-3.92-7.93-.8-1.04-3.46-4.39-8.31-6.47-.51-.22-9.59-3.95-17.77,0-6.61,3.19-9.37,9.81-11.54,15.02-1.12,2.69-1.03,3.38-2.31,5.63-2.64,4.64-5.32,5.67-9.23,9.8-3.57,3.77-6.82,7.2-7.39,12.1-.79,6.84,4.21,11.9,4.62,12.31,4.13,4.06,9.81,5.34,14.08,5.21,5.93-.18,6.07-2.99,13.62-3.96Z"/>
      <path class="cls-2" d="M11.92,48.46c.05,1.98.12,4.49,1.56,7.4.56,1.13,2.87,5.84,8.54,7.93,1.3.48,3.81,1.36,6.92.83,4.93-.84,7.49-4.56,8.08-5.42,2.07-3.01,2.07-5.92,2.08-8.76,0-2.14-.05-6.33-2.89-10.64-1.08-1.64-2.78-4.23-6.35-5.84-1.07-.48-5.1-2.3-9.46-.83-3.53,1.19-5.22,3.84-6.23,5.42-2.42,3.79-2.32,7.5-2.25,9.91Z"/>
      <path class="cls-2" d="M32.86,16.44c-.12,1.13-.23,2.88,0,5.01.19,1.82.43,4.06,1.73,6.67.33.66,1.76,3.44,4.96,6.05,1.78,1.45,3.46,2.83,6.23,3.44,3.54.79,6.46-.2,7.39-.52,4.07-1.43,6.08-4.3,6.69-5.21,1.91-2.83,2.06-5.52,2.31-9.91.12-2.08.21-3.68-.23-5.84-.29-1.45-.99-4.68-3.69-7.93-1.12-1.34-3.31-3.97-7.39-5.32-1.27-.42-4.53-1.5-8.31-.42-4.09,1.17-6.13,4.12-7.04,5.42-2.05,2.95-2.37,5.87-2.65,8.55Z"/>
      <path class="cls-2" d="M67.83,21.13c.07,1.92.15,3.92.92,6.47.47,1.56.93,3.08,2.19,4.8.54.74,1.87,2.5,4.39,3.86,1.02.55,3.56,1.87,6.92,1.67,3.34-.2,5.57-1.79,7.16-2.92,3.45-2.45,4.97-5.4,5.77-6.99,2.31-4.59,2.17-8.67,2.08-10.53-.16-3.41-.32-6.73-3-9.91-3.05-3.6-7.36-4.66-8.43-4.9-1.07-.25-2.68-.6-4.73-.31-2.53.36-4.23,1.48-5.42,2.29-2.6,1.77-3.77,3.06-5.09,5.01-1.2,1.78-1.73,3.08-2.07,4.38-.63,2.43-.79,4.24-.69,7.08Z"/>
      <path class="cls-2" d="M93.57,39.18c-1.31,1.83-1.79,3.46-2.19,4.8-.17.57-.81,2.79-.81,5.84,0,1.84,0,4.19,1.15,6.99.63,1.53,1.5,3.62,3.81,5.42,1.07.84,3.38,2.34,6.69,2.61,3.92.32,6.78-1.3,7.96-1.98,2.83-1.65,4.2-3.78,5.19-5.32.5-.78,1.92-3.12,2.54-6.47.47-2.54.25-4.44,0-6.57-.35-3.01-.52-4.51-1.62-6.26-1.48-2.37-3.62-3.58-4.5-4.07-1.05-.58-3.29-1.81-6.35-1.77-3.13.04-5.33,1.39-7.16,2.5-2.92,1.78-4.42,3.84-4.73,4.28Z"/>
    </g>
    <g class="cls-3">
      <path class="cls-1" d="M8.91,136.15v9.49c0,.84-.02,1.66-.07,2.46-.05.8-.22,1.51-.5,2.14-.28.63-.73,1.13-1.33,1.51-.61.38-1.48.57-2.61.57s-1.94-.19-2.53-.57c-.6-.38-1.03-.88-1.3-1.51-.27-.62-.44-1.34-.48-2.14-.05-.8-.07-1.62-.07-2.46v-27.66c0-.84.02-1.66.07-2.46.05-.8.21-1.51.48-2.14.27-.62.71-1.13,1.3-1.51.6-.38,1.44-.57,2.53-.57h9.67c2.42.12,4.59.63,6.5,1.52.82.39,1.62.88,2.39,1.46.77.59,1.46,1.3,2.08,2.15s1.11,1.86,1.48,3.02c.37,1.16.56,2.5.56,4.03,0,2.09-.33,3.92-.98,5.49-.65,1.57-1.6,2.89-2.84,3.96-1.24,1.06-2.75,1.87-4.54,2.4-1.79.54-3.8.81-6.05.81h-3.75ZM12.89,129.18c.98-.06,1.86-.29,2.64-.7.33-.18.65-.4.97-.67.31-.27.6-.61.85-1.01.25-.4.45-.87.6-1.42.15-.55.22-1.17.22-1.88,0-.66-.07-1.25-.22-1.74s-.34-.93-.57-1.29c-.23-.36-.5-.67-.79-.92-.29-.25-.6-.47-.91-.64-.74-.37-1.57-.6-2.49-.67h-4.28v10.96h3.98Z"/>
      <path class="cls-1" d="M54.96,135.62c0,.31-.02.68-.06,1.1-.04.42-.19.82-.45,1.2s-.68.71-1.25.98c-.57.27-1.37.41-2.4.41h-11.66v2.81c0,.47.06.96.18,1.46.12.51.32.98.6,1.41.28.43.66.78,1.13,1.05.47.27,1.04.41,1.73.41.78,0,1.38-.09,1.8-.28.42-.19.75-.41,1-.69.24-.27.46-.57.66-.88.19-.31.45-.6.78-.88.32-.27.77-.5,1.35-.69.58-.19,1.37-.28,2.39-.28.49,0,.96.04,1.42.12.46.08.86.22,1.22.44.35.22.63.51.85.89.21.38.32.87.32,1.48,0,1.27-.4,2.33-1.2,3.18-.8.85-1.81,1.53-3.02,2.04-1.21.51-2.52.87-3.94,1.08-1.42.22-2.74.32-3.97.32-1.62-.02-3.16-.22-4.63-.62-1.46-.39-2.76-1.02-3.88-1.88-1.12-.86-2.02-1.98-2.68-3.37-.66-1.39-1-3.09-1-5.1v-6.86c0-1.86.22-3.43.66-4.72s1.01-2.36,1.71-3.22c.7-.86,1.49-1.53,2.37-2.01.88-.48,1.77-.83,2.67-1.07.9-.23,1.75-.38,2.56-.44.81-.06,1.51-.09,2.09-.09,1.97,0,3.66.18,5.05.53,1.4.35,2.56.81,3.5,1.38.94.57,1.68,1.22,2.23,1.96.55.74.96,1.51,1.23,2.3.27.79.45,1.59.53,2.4.08.81.12,1.57.12,2.27v1.82ZM39.14,134.92h7.32c0-.92-.02-1.73-.07-2.45-.05-.71-.2-1.31-.44-1.8-.24-.49-.63-.86-1.14-1.11-.52-.25-1.26-.38-2.21-.38-.8,0-1.43.13-1.89.38-.46.25-.81.57-1.04.95s-.38.79-.44,1.22c-.06.43-.09.81-.09,1.14v2.05Z"/>
      <path class="cls-1" d="M64.98,123.02v-5.16c0-.82.04-1.62.13-2.4.09-.78.29-1.48.6-2.09.31-.62.76-1.11,1.35-1.49s1.38-.57,2.37-.57,1.76.19,2.34.57,1.03.88,1.33,1.49c.3.62.5,1.31.59,2.09.09.78.13,1.58.13,2.4v5.16h2.4c.51,0,1.02.02,1.52.07.51.05.96.19,1.36.42s.72.59.97,1.05.37,1.12.37,1.96-.12,1.44-.37,1.9-.57.82-.97,1.05-.85.39-1.36.45c-.51.07-1.02.1-1.52.1h-2.4v10.25c0,.39.01.81.04,1.25s.13.85.31,1.22c.18.37.44.68.79.92.35.24.85.37,1.49.37.7,0,1.3.05,1.8.16.5.11.91.3,1.23.57.32.27.56.65.72,1.14.16.49.23,1.11.23,1.88s-.18,1.46-.54,2.02c-.36.57-.84,1.04-1.45,1.41-.61.37-1.31.64-2.11.82-.8.18-1.64.26-2.52.26-1.39,0-2.57-.15-3.56-.44-.99-.29-1.81-.71-2.46-1.25-.65-.54-1.17-1.18-1.55-1.93-.38-.75-.66-1.6-.85-2.53-.19-.94-.3-1.95-.35-3.03-.05-1.08-.07-2.22-.07-3.41v-9.67h-1.64c-.51,0-1.01-.03-1.51-.1-.5-.07-.94-.22-1.33-.45-.39-.23-.71-.59-.95-1.05-.24-.47-.37-1.1-.37-1.9s.12-1.49.37-1.96c.24-.47.56-.82.95-1.05.39-.23.83-.38,1.33-.42.5-.05,1-.07,1.51-.07h1.64Z"/>
      <path class="cls-1" d="M99.43,123.02c.49,0,.99.03,1.49.09s.96.21,1.36.44.73.6.98,1.08c.25.49.38,1.16.38,2.02,0,.8-.13,1.43-.38,1.89-.25.46-.58.81-.98,1.05-.4.24-.85.4-1.36.47-.51.07-1.01.1-1.49.1h-1.76v15.53c0,.86-.04,1.68-.13,2.48s-.29,1.49-.62,2.11-.79,1.11-1.41,1.48c-.62.37-1.44.56-2.48.56s-1.78-.19-2.36-.56c-.58-.37-1.01-.86-1.3-1.48s-.48-1.32-.56-2.11-.12-1.62-.12-2.48v-15.53h-1.64c-.55,0-1.07-.03-1.57-.1-.5-.07-.94-.22-1.32-.47-.38-.24-.69-.6-.92-1.05-.23-.46-.35-1.09-.35-1.89,0-.86.12-1.53.35-2.02.23-.49.54-.85.92-1.08s.82-.38,1.32-.44,1.02-.09,1.57-.09h1.64c0-1.72.08-3.3.23-4.75.16-1.45.54-2.68,1.14-3.71s1.5-1.83,2.7-2.4c1.19-.58,2.82-.86,4.89-.86.88,0,1.71.08,2.49.23.78.16,1.46.4,2.05.73.59.33,1.05.77,1.39,1.3.34.54.51,1.19.51,1.95,0,.7-.12,1.29-.37,1.76s-.54.85-.89,1.14-.74.5-1.16.62-.81.18-1.16.18c-.29,0-.57-.07-.82-.21-.25-.14-.55-.21-.88-.21-.27,0-.48.09-.63.26s-.26.41-.35.7-.14.62-.16.97-.03.7-.03,1.05v1.23h1.76Z"/>
      <path class="cls-1" d="M111.62,164.04c-2.23,0-3.81-.32-4.75-.95s-1.41-1.57-1.41-2.8c0-.61.08-1.11.25-1.52s.4-.74.69-1,.63-.43,1.01-.54.79-.16,1.22-.16c.29,0,.57,0,.82.03.25.02.47.03.64.03.37,0,.73-.22,1.07-.66s.67-.99,1-1.66c.32-.66.65-1.38.98-2.14s.66-1.46,1-2.11l-.47-1.17c-.57-1.43-1.16-2.92-1.79-4.5-.62-1.57-1.25-3.16-1.86-4.78s-1.22-3.22-1.82-4.82c-.6-1.6-1.14-3.15-1.63-4.66-.21-.62-.4-1.24-.54-1.85-.15-.6-.22-1.2-.22-1.79s.12-1.09.35-1.58c.23-.49.56-.91.97-1.26s.88-.63,1.42-.83,1.11-.31,1.71-.31c.55,0,1.05.12,1.51.35s.87.56,1.23.97.68.88.95,1.41.51,1.08.7,1.67l3.93,12.36,3.75-12.36c.18-.55.4-1.09.67-1.64.27-.55.6-1.03.97-1.45.37-.42.79-.76,1.26-1.03s.99-.4,1.55-.4,1.11.11,1.63.32c.52.22.97.51,1.35.89s.68.83.91,1.36.34,1.09.34,1.7-.07,1.17-.22,1.74c-.15.58-.33,1.15-.54,1.71l-7.03,18.63c-.41,1.05-.85,2.15-1.33,3.3s-1,2.26-1.57,3.35c-.57,1.09-1.17,2.13-1.82,3.11s-1.33,1.84-2.05,2.58-1.49,1.33-2.3,1.77-1.66.66-2.53.66Z"/>
    </g>
  </g>
</svg>